<svg width="26" height="26" viewBox="0 0 26 26" fill="none" xmlns="http://www.w3.org/2000/svg">
<g id="close">
<path id="Vector" d="M21.1805 20.4444L13.7361 13L21.1805 5.55573C21.3755 5.35393 21.3755 5.03394 21.1805 4.83208C20.9806 4.6252 20.6509 4.61947 20.444 4.8193L12.9997 12.2636L5.55546 4.81936C5.35366 4.62443 5.03367 4.62443 4.83181 4.81936C4.62492 5.01919 4.6192 5.34891 4.81903 5.55579L12.2633 13L4.81903 20.4443C4.72137 20.542 4.6665 20.6744 4.6665 20.8125C4.66644 21.1001 4.89965 21.3333 5.18727 21.3334C5.32543 21.3335 5.45793 21.2786 5.55546 21.1807L12.9997 13.7365L20.444 21.1808C20.5416 21.2786 20.6741 21.3336 20.8123 21.3334C20.9503 21.3333 21.0827 21.2785 21.1803 21.1809C21.3838 20.9775 21.3838 20.6478 21.1805 20.4444Z" fill="#F7F7F7"/>
</g>
</svg>
